<svg width="33" height="26" viewBox="0 0 33 26" fill="none" xmlns="http://www.w3.org/2000/svg">
<path d="M30.9971 10.6733C31.9219 10.6733 32.6742 9.91865 32.6742 8.99103C32.6742 8.0634 31.9219 7.30872 30.9971 7.30872H30.4262C29.5924 7.30872 28.8989 7.92247 28.7706 8.72315L27.3427 4.78422C27.0209 3.89628 26.1719 3.29978 25.2301 3.29978H21.1593L20.8579 1.78872C20.7018 1.00503 20.0101 0.436279 19.2135 0.436279H14.2345C13.4379 0.436279 12.7463 1.00503 12.59 1.78872L12.2888 3.29978H8.21796C7.27616 3.29978 6.42712 3.89634 6.10532 4.78415L4.67753 8.72309C4.54925 7.92247 3.85579 7.30872 3.02196 7.30872H2.45106C1.52626 7.30872 0.773926 8.0634 0.773926 8.99103C0.773926 9.91865 1.52626 10.6733 2.45099 10.6733H3.0219C3.28551 10.6733 3.53498 10.6118 3.75716 10.5027L2.53349 12.0371C2.13511 12.5366 1.91573 13.1639 1.91573 13.8035V24.4541C1.91573 25.066 2.41193 25.5637 3.0219 25.5637H4.73467C5.34463 25.5637 5.84083 25.066 5.84083 24.4541V22.1275H27.6072V24.4541C27.6072 25.066 28.1034 25.5637 28.7134 25.5637H30.4262C31.0361 25.5637 31.5323 25.066 31.5323 24.4541V13.8035C31.5323 13.1639 31.3129 12.5365 30.9146 12.0371L29.6909 10.5027C29.9131 10.6118 30.1625 10.6733 30.4262 10.6733H30.9971ZM3.02196 9.59953H2.45106C2.11654 9.59953 1.84445 9.32659 1.84445 8.99103C1.84445 8.65547 2.11654 8.38253 2.45106 8.38253H3.02196C3.35648 8.38253 3.62856 8.65547 3.62856 8.99103C3.62856 9.32653 3.35641 9.59953 3.02196 9.59953ZM13.6398 1.99922C13.6963 1.71578 13.9464 1.51003 14.2345 1.51003H19.2135C19.5016 1.51003 19.7518 1.71578 19.8082 1.99922L20.0675 3.29978H13.3804L13.6398 1.99922ZM4.77037 24.4541C4.77037 24.4738 4.75436 24.4899 4.73467 24.4899H3.0219C3.00221 24.4899 2.9862 24.4738 2.9862 24.4541V21.7923C3.32887 22.0046 3.73224 22.1275 4.1637 22.1275H4.77031V24.4541H4.77037ZM23.0399 21.0537H10.4082V19.8725C10.4082 19.8527 10.4243 19.8367 10.4439 19.8367H23.0042C23.0239 19.8367 23.0399 19.8527 23.0399 19.8725V21.0537H23.0399ZM30.4619 24.4541C30.4619 24.4738 30.4458 24.4899 30.4262 24.4899H28.7134C28.6937 24.4899 28.6777 24.4738 28.6777 24.4541V22.1275H29.2843C29.7157 22.1275 30.1191 22.0046 30.4618 21.7923V24.4541H30.4619ZM30.0788 12.7079C30.3258 13.0177 30.4619 13.4068 30.4619 13.8036V19.8725C30.4619 20.5238 29.9337 21.0537 29.2844 21.0537H24.1103V19.8725C24.1103 19.2606 23.6141 18.7628 23.0042 18.7628H10.4439C9.83397 18.7628 9.33777 19.2606 9.33777 19.8725V21.0537H4.16376C3.51448 21.0537 2.98626 20.5238 2.98626 19.8725V13.8036C2.98626 13.4068 3.12233 13.0177 3.36944 12.7079L4.99192 10.6733H20.1496C20.4452 10.6733 20.6849 10.433 20.6849 10.1364C20.6849 9.8399 20.4452 9.59947 20.1496 9.59947H5.4989L7.11149 5.15103C7.28002 4.68597 7.72476 4.37353 8.21809 4.37353H25.2301C25.7235 4.37353 26.1682 4.68603 26.3368 5.15103L27.9493 9.59947H25.8589C25.5634 9.59947 25.3237 9.83984 25.3237 10.1364C25.3237 10.4329 25.5633 10.6733 25.8589 10.6733H28.4563L30.0788 12.7079ZM29.8195 8.99103C29.8195 8.65547 30.0916 8.38253 30.4262 8.38253H30.9971C31.3316 8.38253 31.6037 8.65547 31.6037 8.99103C31.6037 9.32659 31.3316 9.59953 30.9971 9.59953H30.4262C30.0917 9.59953 29.8195 9.32653 29.8195 8.99103Z" fill="black"/>
</svg>
